HIERARCHY
ROOT Hips
{
  OFFSET 0 0 0
  CHANNELS 6 Xposition Yposition Zposition Zrotation Yrotation Xrotation
  JOINT LeftThigh
  {
    OFFSET 8.409438 0 -5.917753
    CHANNELS 3 Zrotation Yrotation Xrotation
    JOINT LeftLeg
    {
      OFFSET 0 0 -42.358652
      CHANNELS 3 Zrotation Yrotation Xrotation
      JOINT LeftFoot
      {
        OFFSET 0 0 -39.357303
        CHANNELS 3 Zrotation Yrotation Xrotation
      }
    }
  }
  JOINT RightThigh
  {
    OFFSET -8.409438 0 -5.917753
    CHANNELS 3 Zrotation Yrotation Xrotation
    JOINT RightLeg
    {
      OFFSET 0 0 -42.358652
      CHANNELS 3 Zrotation Yrotation Xrotation
      JOINT RightFoot
      {
        OFFSET 0 0 -39.357303
        CHANNELS 3 Zrotation Yrotation Xrotation
      }
    }
  }
  JOINT SpineLow
  {
    OFFSET 0 0 4.719101
    CHANNELS 3 Zrotation Yrotation Xrotation
    JOINT SpineMid
    {
      OFFSET 0 0 12.899191
      CHANNELS 3 Zrotation Yrotation Xrotation
      JOINT Chest
      {
        OFFSET 0 0 12.899191
        CHANNELS 3 Zrotation Yrotation Xrotation
        JOINT LeftShoulder
        {
          OFFSET 7.550562 1.41573 9.438202
          CHANNELS 3 Zrotation Yrotation Xrotation
          JOINT LeftArm
          {
            OFFSET 9.155056 0 4.247191
            CHANNELS 3 Zrotation Yrotation Xrotation
            JOINT LeftForearm
            {
              OFFSET 0 0 25.771955
              CHANNELS 3 Zrotation Yrotation Xrotation
              JOINT LeftHand
              {
                OFFSET 0 0 25.197169
                CHANNELS 3 Zrotation Yrotation Xrotation
              }
            }
          }
        }
        JOINT RightShoulder
        {
          OFFSET -7.550562 1.41573 9.438202
          CHANNELS 3 Zrotation Yrotation Xrotation
          JOINT RightArm
          {
            OFFSET -9.155056 0 4.247191
            CHANNELS 3 Zrotation Yrotation Xrotation
            JOINT RightForearm
            {
              OFFSET 0 0 -25.771955
              CHANNELS 3 Zrotation Yrotation Xrotation
              JOINT RightHand
              {
                OFFSET 0 0 -25.197169
                CHANNELS 3 Zrotation Yrotation Xrotation
              }
            }
          }
        }
        JOINT Neck
        {
          OFFSET 0 0 15.101124
          CHANNELS 3 Zrotation Yrotation Xrotation
          JOINT Head
          {
            OFFSET 0 0 11.325843
            CHANNELS 3 Zrotation Yrotation Xrotation
            End Site
            {
              OFFSET 0 0 14.157303
            }
          }
        }
      }
    }
  }
}
MOTION
Frames: 14
Frame Time: 0.0
0.0  89.887642  0.0  26.281295  -30.978344  -136.546153  52.35668  -37.905446  -83.03595  -2.211347  67.597396  78.870044  15.413362  0.292308  5.206378  -12.256032  15.807892  9.318194  15.550117  11.772981  27.381309  14.051249  5.951113  3.566049  -1.244353  2.896627  1.316292  -3.256482  7.980596  3.462757  -3.256482  7.980596  3.462757  -14.56596  29.520849  13.868601  -107.752753  60.402312  -82.429609  -26.557582  -23.045768  75.416191  63.253714  18.576059  6.119097  10.00389  -11.074755  28.862  111.614307  27.762892  55.617358  -10.653907  -2.040982  -97.8377  108.964112  29.246435  -60.603169  12.345748  0.804799  14.619968  9.24622  0.900136  10.953885  
0.0  89.887642  0.0  25.793148  -31.255434  -135.477352  51.380825  -44.046895  -83.414279  26.787949  66.384662  101.785667  15.518156  0.946264  4.529275  -11.038843  15.166486  8.694338  16.801038  10.064855  27.993632  12.603942  5.510796  3.774104  -1.12786  2.693494  1.22127  -2.956954  7.415598  3.22382  -2.956954  7.415598  3.22382  -13.241176  29.166348  14.316194  -113.683215  61.347859  -85.567858  -26.314006  -24.63754  76.36909  60.342852  18.231204  2.45743  10.213498  -11.307667  30.075359  110.75088  28.040708  54.729  -10.778243  -2.950439  -98.633883  107.592921  28.00049  -60.440152  11.813012  1.116295  15.173706  8.838259  1.131991  11.363428  
0.0  89.887642  0.0  25.244178  -30.935789  -134.205873  45.510124  -47.338486  -76.234633  39.779982  62.261717  109.203227  15.659031  1.41244  4.124073  -11.027416  14.842333  7.739994  17.907748  9.030324  28.476275  11.90756  5.104837  3.847076  -1.144372  2.535971  1.135955  -3.018112  6.982237  2.994133  -3.018111  6.982237  2.994132  -11.459466  28.231092  14.84792  -121.451305  61.486932  -90.592845  -28.058062  -24.196722  77.086356  60.735877  17.53774  1.559114  10.875946  -11.464712  30.957611  109.647215  28.44754  53.542106  -11.34317  -3.403674  -99.433139  105.583551  26.482403  -60.025377  11.423444  1.513811  15.531168  8.535181  1.427479  11.624273  
0.0  89.887642  0.0  24.702974  -30.313328  -132.704169  42.311857  -49.688407  -71.539703  53.102752  59.12891  118.572324  15.099621  1.817221  3.651634  -11.699978  14.535172  6.348936  17.787544  9.055515  29.083825  11.60105  5.182865  3.827368  -1.197693  2.461395  1.265671  -3.153788  6.786864  3.347216  -3.153788  6.786864  3.347216  -10.500149  26.214374  13.651161  -129.316705  60.812645  -96.105893  -30.300218  -22.368769  77.998383  63.344617  17.501205  2.696144  11.801931  -11.675503  29.948401  108.206025  29.060866  51.967369  -11.720828  -3.784722  -100.316047  102.961828  24.431742  -59.650488  10.837255  1.842097  14.806532  8.08826  1.645983  11.075452  
0.0  89.887642  0.0  24.190195  -29.767352  -130.771042  39.790205  -50.185968  -67.782417  63.201101  55.637737  126.882204  13.875165  2.068822  3.022632  -12.451239  13.748726  4.701983  16.213481  10.071697  29.408743  12.006056  5.616339  3.771125  -1.132332  2.474025  1.485214  -2.951094  6.827648  3.955464  -2.951094  6.827648  3.955464  -10.982614  23.293247  11.324085  -136.196088  59.826425  -101.113688  -31.202855  -20.331139  78.557644  66.147478  17.837828  3.979119  12.113032  -12.148325  27.969312  106.570659  30.255841  50.057149  -11.488037  -4.364528  -101.405988  99.910224  21.796751  -59.286073  9.760638  1.765691  13.344994  7.28547  1.538795  9.9828  
0.0  89.887642  0.0  23.624052  -29.221611  -128.359227  38.00558  -47.328337  -64.635491  68.172924  52.286487  133.0587  12.13277  2.019151  2.170858  -13.732133  12.709563  2.41906  15.275662  11.118263  29.805724  12.905267  5.87827  3.729708  -1.105675  2.505332  1.616388  -2.862416  6.917076  4.316825  -2.862416  6.917075  4.316825  -11.486925  20.379762  9.203658  -141.650809  58.564666  -105.007684  -30.951413  -19.688553  78.530345  67.604205  18.00141  5.411747  12.674658  -12.518138  26.16573  104.561099  31.995724  47.69731  -10.56347  -5.123357  -102.645495  96.551701  18.830189  -58.840549  8.80082  1.539549  11.812241  6.573378  1.325714  8.838667  
0.0  89.887642  0.0  22.826375  -28.76834  -125.86406  37.02305  -42.104567  -62.104265  70.044585  49.780008  138.049791  10.937121  1.794142  1.395704  -15.1191  11.49937  0.245289  15.778934  11.518391  30.208774  13.142889  5.684896  3.736593  -1.075456  2.530948  1.731257  -2.765732  6.989711  4.634183  -2.765732  6.989711  4.634183  -11.8704  17.452279  7.470793  -146.561913  57.245376  -108.062425  -29.730485  -20.300406  78.003963  67.615067  17.957382  6.063838  12.509941  -13.027765  24.180539  102.733882  33.594616  45.048598  -8.892136  -5.959419  -103.902464  93.060585  15.825306  -58.190288  7.943412  1.162954  10.306578  5.939749  1.006742  7.716106  
0.0  89.887642  0.0  21.62287  -27.931522  -123.373958  35.623355  -36.881143  -59.668049  72.260154  47.987422  142.607518  10.665808  1.436139  1.08896  -16.510067  10.497154  -1.546673  16.767179  10.885042  30.463075  12.644122  5.453528  3.910586  -1.065537  2.547454  1.880695  -2.72134  7.039975  5.04455  -2.72134  7.039975  5.04455  -12.24681  14.486375  6.051374  -151.721502  55.977192  -111.160778  -28.470196  -21.259862  77.404047  67.001209  17.676997  5.973609  12.780919  -13.631755  22.641914  99.967476  35.862856  41.859284  -7.136224  -6.787857  -104.991759  89.425577  13.025388  -57.172394  6.901296  0.735273  8.817225  5.16657  0.651297  6.605527  
0.0  89.887642  0.0  20.09578  -26.826129  -120.904435  33.666254  -31.963439  -56.352806  73.383095  46.637554  145.230274  10.74979  1.008096  1.172852  -17.619988  9.707757  -2.924319  17.129252  9.772508  30.484049  12.149784  5.313536  4.107864  -0.738566  2.545749  1.971409  -1.815447  7.012903  5.328533  -1.815447  7.012903  5.328532  -14.220562  11.427364  5.832574  -157.627006  54.720945  -114.482397  -27.919857  -22.11888  76.786705  66.60463  17.325258  5.612709  10.599672  -14.826911  21.874417  96.925548  37.993864  38.415626  -5.554852  -7.446629  -105.924797  85.726968  10.35616  -55.760641  4.655958  1.16E-4  7.882402  3.492656  0.060161  5.912208  
0.0  89.887642  0.0  18.478345  -25.827622  -118.473847  32.11426  -27.800928  -52.376278  72.91801  45.441536  145.849316  10.434787  0.666465  1.363055  -18.112078  8.744212  -3.950591  16.294879  9.132892  30.284816  11.866499  5.105942  4.186446  -0.50614  2.435785  1.975789  -1.186677  6.694005  5.366159  -1.186677  6.694005  5.366159  -15.266619  9.263189  5.954733  -163.452239  53.550283  -117.530032  -28.15728  -22.422051  76.192832  66.816257  17.063679  5.283077  9.124927  -15.495313  21.663162  93.679088  39.950957  34.732907  -4.607511  -7.741598  -106.612563  81.897947  7.764735  -53.884321  2.822204  -0.356769  7.271516  2.121247  -0.23404  5.455404  
0.0  89.887642  0.0  17.004904  -25.040135  -116.455197  30.758796  -25.323186  -47.864225  71.88028  44.051436  145.401646  9.749423  0.6456  1.339507  -17.982774  7.778824  -4.507996  15.931969  8.89416  30.632628  10.916363  4.641653  3.795011  -0.505855  2.201188  1.992271  -1.203049  6.053501  5.41321  -1.203049  6.0535  5.41321  -14.616921  8.428921  5.591799  -168.804525  52.583441  -120.22199  -28.832852  -22.301859  75.645173  67.594555  16.984198  4.972942  9.382475  -15.170886  21.414752  90.269095  41.66263  30.847545  -4.663875  -7.68544  -106.785005  79.54373  5.417785  -49.413235  1.956942  -0.063339  6.651064  1.468602  -0.02621  4.988561  
0.0  89.887642  0.0  15.630351  -24.294768  -114.924568  28.901604  -24.869305  -42.707213  71.39405  42.48851  144.477103  9.031088  0.745453  1.261177  -18.083481  6.922954  -4.846222  13.968137  8.906511  30.310097  11.150074  4.705711  3.831155  -0.466341  1.931236  1.995236  -1.116369  5.313026  5.427017  -1.116369  5.313026  5.427017  -14.238026  8.367739  5.422745  -173.411357  51.759574  -122.702087  -29.43094  -22.129253  75.157818  68.429071  17.048729  4.389946  9.538283  -14.720016  21.500146  86.908078  43.018401  27.021645  -4.959122  -7.46286  -106.779732  75.962088  3.344072  -46.836315  1.036943  0.383872  6.298874  0.773845  0.29863  4.723503  
0.0  89.887642  0.0  14.136877  -22.994304  -113.536412  25.945444  -26.114815  -37.556005  72.662032  41.400373  144.211312  8.796811  0.963968  1.238568  -18.978731  6.25877  -5.16373  12.513595  8.728539  30.093939  11.236159  4.646433  3.895225  -0.419538  1.685246  2.033508  -1.005525  4.637867  5.537301  -1.005525  4.637867  5.537301  -14.564591  8.149489  5.151708  -177.521578  50.663063  -125.122149  -29.750776  -22.126486  74.735961  68.975356  17.210718  3.460633  9.614126  -15.056182  21.90424  83.286826  44.773802  23.722123  -5.755808  -7.110751  -106.466396  72.725142  1.540214  -44.140139  -0.170817  0.705382  5.926185  -0.134967  0.527439  4.44478  
0.0  89.887642  0.0  12.621798  -21.476422  -112.205224  22.361596  -27.859043  -32.367455  74.306794  41.317117  143.851054  8.862329  1.296519  1.268225  -20.442006  5.621592  -5.546398  11.776489  8.371265  29.993039  11.149695  4.518008  4.107511  -0.410399  1.474115  2.0958  -0.994155  4.061328  5.71005  -0.994155  4.061327  5.71005  -14.992674  7.482411  4.610365  178.703908  49.096914  -127.500798  -29.927931  -22.26977  74.375061  69.208644  17.436906  2.342209  9.35883  -15.167931  21.425098  80.353665  45.771058  20.442947  -6.983476  -6.838762  -105.847809  69.943641  0.073205  -41.49411  -1.369686  0.833306  5.431798  -1.03475  0.612867  4.075669  
